<?xml version="1.0" encoding="UTF-8"?>
<!-- TT monogram — Tulay Tsambardas, Digital Designer.
     Built from Tulay's original Illustrator serif T letterform.
     Colours: Deep Ocean Blue #15445A, Warm Terracotta #D99B77
     Original single-T version archived at _archive/logo-T-single-original.svg -->
<svg xmlns="http://www.w3.org/2000/svg" viewBox="440 420 1700 1500" role="img" aria-label="TT monogram">
  <path fill="#D99B77" transform="translate(560,330)" d="M1486.8,500l13.2,234.5h-33.4c-6.5-41.3-15.2-70.8-26.4-88.5-18.2-28.5-42.3-49.5-72.5-63.1-30.2-13.5-69.9-20.3-119.1-20.3h-167.8v764c0,61.5,7.9,99.8,23.7,115,22.3,20.6,56.5,31,102.8,31h41.3v27.3h-505.3v-27.3h42.2c50.4,0,86.1-12.8,107.2-38.3,12.9-15.7,19.3-51.6,19.3-107.7v-764h-143.2c-55.7,0-95.2,3.4-118.6,10.3-30.5,9.3-56.5,27.3-78.2,53.8-21.7,26.5-34.6,62.4-38.7,107.7h-33.4l14.1-234.5h972.8Z"/>
  <path fill="#15445A" d="M1486.8,500l13.2,234.5h-33.4c-6.5-41.3-15.2-70.8-26.4-88.5-18.2-28.5-42.3-49.5-72.5-63.1-30.2-13.5-69.9-20.3-119.1-20.3h-167.8v764c0,61.5,7.9,99.8,23.7,115,22.3,20.6,56.5,31,102.8,31h41.3v27.3h-505.3v-27.3h42.2c50.4,0,86.1-12.8,107.2-38.3,12.9-15.7,19.3-51.6,19.3-107.7v-764h-143.2c-55.7,0-95.2,3.4-118.6,10.3-30.5,9.3-56.5,27.3-78.2,53.8-21.7,26.5-34.6,62.4-38.7,107.7h-33.4l14.1-234.5h972.8Z"/>
</svg>
